<?xml version="1.0" encoding="utf-8"?>
<!-- Generator: Adobe Illustrator 16.0.4, SVG Export Plug-In . SVG Version: 6.00 Build 0)  -->
<svg version="1.2" baseProfile="tiny" id="Layer_1" xmlns="http://www.w3.org/2000/svg" xmlns:xlink="http://www.w3.org/1999/xlink"
	 x="0px" y="0px" width="171.207px" height="69.292px" viewBox="0 0 171.207 69.292" xml:space="preserve">
<rect width="171.207" height="69.292"/>
<g>
	<path fill="#FFFFFF" d="M35.041,23.942c-0.291-0.211-0.582-0.356-0.873-0.437c-0.291-0.079-0.681-0.118-1.17-0.118h-4.642
		c-0.331,0-0.562,0.026-0.694,0.079c-0.132,0.053-0.245,0.165-0.337,0.337c-0.026,0.04-0.053,0.112-0.079,0.218
		c-0.027,0.106-0.057,0.216-0.089,0.328c-0.033,0.112-0.06,0.218-0.079,0.317c-0.02,0.099-0.03,0.168-0.03,0.208
		c0,0.331,0.264,0.496,0.793,0.496h4.026c0.397,0,0.708,0.033,0.932,0.099c0.225,0.066,0.43,0.179,0.615,0.338
		c0.198,0.198,0.344,0.399,0.436,0.604c0.093,0.205,0.139,0.439,0.139,0.704c0,0.093,0,0.166,0,0.219s-0.007,0.115-0.02,0.188
		c-0.013,0.073-0.033,0.156-0.06,0.248c-0.026,0.093-0.06,0.226-0.099,0.397l-0.873,3.372c-0.106,0.37-0.198,0.674-0.278,0.912
		c-0.079,0.238-0.166,0.437-0.258,0.595c-0.093,0.159-0.195,0.298-0.308,0.417s-0.254,0.244-0.426,0.377
		c-0.198,0.132-0.384,0.237-0.556,0.317c-0.172,0.079-0.367,0.139-0.585,0.178c-0.218,0.04-0.489,0.066-0.813,0.08
		c-0.324,0.013-0.731,0.02-1.22,0.02h-8.728l0.377-2.697c0.185,0.119,0.347,0.211,0.486,0.277c0.139,0.066,0.288,0.116,0.446,0.148
		c0.159,0.033,0.347,0.054,0.565,0.06c0.218,0.007,0.506,0.01,0.863,0.01h4.324c0.357,0,0.592-0.022,0.704-0.069
		c0.112-0.046,0.215-0.155,0.308-0.327c0.066-0.146,0.125-0.323,0.178-0.535s0.08-0.377,0.08-0.496c0-0.225-0.119-0.37-0.357-0.437
		c-0.04-0.013-0.073-0.022-0.1-0.029s-0.073-0.01-0.139-0.01c-0.053,0-0.132,0-0.238,0c-0.106,0-0.258,0-0.457,0h-3.213
		c-1.653,0-2.479-0.596-2.479-1.786c0-0.105,0.003-0.204,0.01-0.297c0.006-0.093,0.02-0.191,0.04-0.298
		c0.02-0.105,0.046-0.234,0.08-0.387c0.033-0.151,0.082-0.347,0.148-0.585l0.793-3.055c0.08-0.291,0.159-0.542,0.238-0.754
		c0.079-0.211,0.171-0.399,0.277-0.565c0.106-0.165,0.235-0.313,0.387-0.446c0.152-0.132,0.327-0.265,0.525-0.396
		c0.568-0.384,1.369-0.575,2.4-0.575h9.323L35.041,23.942z"/>
</g>
<g>
	<path fill="#FFFFFF" d="M49.046,21.186l-0.238,2.439c-0.198-0.105-0.374-0.172-0.525-0.198c-0.152-0.026-0.367-0.039-0.645-0.039
		H44.94l-2.4,9.303c-0.027,0.105-0.053,0.274-0.08,0.506s-0.04,0.413-0.04,0.545c0,0.133,0.006,0.245,0.02,0.337
		c0.013,0.093,0.046,0.212,0.099,0.357h-5.931c0.119-0.172,0.225-0.33,0.317-0.476s0.172-0.305,0.238-0.477
		c0.066-0.172,0.132-0.36,0.198-0.565c0.066-0.205,0.139-0.452,0.218-0.744l2.281-8.786h-2.856c-0.265,0-0.479,0.013-0.645,0.039
		c-0.166,0.026-0.367,0.086-0.605,0.179l1.011-2.42H49.046z"/>
</g>
<g>
	<path fill="#FFFFFF" d="M63.088,32.273c0.08,0.344,0.152,0.625,0.218,0.843c0.066,0.219,0.132,0.407,0.198,0.565
		c0.066,0.159,0.142,0.295,0.228,0.407s0.188,0.228,0.308,0.347h-6.229c0.119-0.225,0.202-0.41,0.248-0.556s0.069-0.297,0.069-0.456
		c0-0.265-0.053-0.661-0.159-1.19l-0.277-1.368h-6.208l-1.488,2.202c-0.291,0.409-0.437,0.753-0.437,1.031c0,0.053,0,0.105,0,0.158
		c0,0.04,0.013,0.1,0.04,0.179H46.05c0.291-0.251,0.555-0.506,0.793-0.764c0.238-0.258,0.529-0.625,0.873-1.101l7.141-10.612
		c-0.186-0.211-0.341-0.363-0.466-0.456c-0.126-0.093-0.334-0.191-0.625-0.298h7.022L63.088,32.273z M56.245,23.744l-3.392,5.078
		h4.423L56.245,23.744z"/>
</g>
<g>
	<path fill="#FFFFFF" d="M79.076,21.205h7.042c-0.119,0.186-0.225,0.351-0.317,0.496c-0.093,0.146-0.172,0.301-0.238,0.466
		c-0.066,0.166-0.132,0.351-0.199,0.556c-0.066,0.205-0.139,0.453-0.218,0.744l-2.38,9.224c-0.027,0.105-0.053,0.274-0.08,0.506
		s-0.04,0.413-0.04,0.545c0,0.133,0.006,0.245,0.02,0.337c0.013,0.093,0.046,0.212,0.099,0.357h-5.931
		c0.119-0.172,0.225-0.334,0.317-0.486c0.092-0.151,0.171-0.307,0.238-0.466c0.066-0.158,0.132-0.34,0.198-0.546
		c0.066-0.204,0.139-0.459,0.218-0.764l2.123-8.172l-6.03,10.434h-3.59l-0.674-10.394l-2.242,8.648
		c-0.026,0.105-0.053,0.271-0.079,0.495c-0.027,0.226-0.04,0.41-0.04,0.556c0,0.133,0.007,0.245,0.02,0.337
		c0.013,0.093,0.046,0.212,0.099,0.357h-3.015c0.119-0.172,0.225-0.334,0.317-0.486c0.093-0.151,0.172-0.307,0.238-0.466
		c0.066-0.158,0.132-0.34,0.198-0.546c0.066-0.204,0.139-0.459,0.218-0.764l2.38-9.223c0.026-0.106,0.053-0.274,0.079-0.506
		s0.04-0.413,0.04-0.546c0-0.119-0.007-0.228-0.02-0.327c-0.013-0.1-0.046-0.222-0.099-0.367h6.685l0.476,7.24L79.076,21.205z"/>
</g>
<g>
	<path fill="#FFFFFF" d="M98.019,21.186c0.291,0,0.542,0.003,0.754,0.01s0.394,0.023,0.546,0.05c0.151,0.026,0.283,0.06,0.396,0.1
		c0.111,0.039,0.229,0.093,0.348,0.159c0.369,0.212,0.674,0.516,0.912,0.913s0.356,0.795,0.356,1.192
		c0,0.265-0.043,0.615-0.129,1.053c-0.086,0.437-0.188,0.848-0.308,1.231c-0.132,0.397-0.33,0.738-0.595,1.023
		c-0.265,0.284-0.562,0.474-0.893,0.566c-0.106,0.026-0.198,0.046-0.278,0.059c-0.078,0.014-0.175,0.027-0.287,0.04
		c-0.112,0.014-0.258,0.03-0.436,0.05c-0.18,0.02-0.414,0.037-0.705,0.05c0.768,0.105,1.319,0.292,1.656,0.557
		c0.338,0.265,0.506,0.648,0.506,1.151c0,0.173-0.02,0.338-0.06,0.497l-0.456,1.788c-0.079,0.278-0.148,0.517-0.208,0.715
		s-0.129,0.371-0.208,0.517c-0.08,0.146-0.166,0.274-0.258,0.388c-0.094,0.112-0.205,0.228-0.338,0.347
		c-0.158,0.159-0.33,0.288-0.516,0.388s-0.396,0.179-0.635,0.238s-0.516,0.103-0.833,0.129c-0.317,0.027-0.688,0.04-1.11,0.04
		h-10.87c0.119-0.172,0.225-0.334,0.317-0.486c0.093-0.152,0.172-0.312,0.238-0.477c0.066-0.166,0.132-0.352,0.198-0.557
		c0.066-0.205,0.139-0.454,0.218-0.745l2.381-9.237c0.025-0.105,0.053-0.274,0.079-0.507c0.026-0.231,0.04-0.413,0.04-0.546
		c0-0.119-0.008-0.229-0.021-0.328c-0.013-0.099-0.046-0.222-0.099-0.367H98.019z M93.179,32.233c0.37,0,0.628-0.062,0.774-0.187
		c0.145-0.125,0.27-0.397,0.376-0.818l0.357-1.421c0.026-0.053,0.042-0.114,0.05-0.188c0.006-0.072,0.01-0.134,0.01-0.187
		c0-0.236-0.08-0.404-0.238-0.503s-0.424-0.148-0.793-0.148h-2.4l-0.893,3.451H93.179z M94.31,26.581
		c0.278,0,0.499-0.01,0.665-0.029c0.164-0.021,0.3-0.069,0.406-0.148c0.105-0.078,0.188-0.19,0.248-0.335
		c0.059-0.145,0.121-0.342,0.188-0.592l0.299-1.163c0.039-0.131,0.059-0.249,0.059-0.354c0-0.381-0.297-0.571-0.893-0.571h-2.578
		l-0.834,3.193H94.31z"/>
</g>
<g>
	<path fill="#FFFFFF" d="M107.62,28.763l-1.012,3.928c-0.04,0.146-0.073,0.324-0.099,0.535c-0.027,0.212-0.04,0.384-0.04,0.516
		c0,0.133,0.007,0.245,0.02,0.337c0.013,0.093,0.053,0.212,0.119,0.357h-5.931c0.119-0.172,0.225-0.331,0.317-0.477
		s0.172-0.302,0.237-0.467c0.066-0.166,0.133-0.352,0.199-0.557s0.139-0.453,0.218-0.745l2.38-9.257
		c0.027-0.105,0.053-0.274,0.08-0.507c0.026-0.231,0.039-0.413,0.039-0.546c0-0.119-0.006-0.229-0.02-0.328
		c-0.014-0.099-0.047-0.222-0.1-0.367h9.879c0.383,0,0.697,0.007,0.941,0.02c0.245,0.014,0.453,0.033,0.625,0.061
		c0.172,0.026,0.32,0.072,0.447,0.139c0.125,0.066,0.26,0.146,0.406,0.238c0.316,0.226,0.578,0.521,0.783,0.886
		s0.308,0.719,0.308,1.063c0,0.08-0.014,0.226-0.04,0.438c-0.026,0.213-0.053,0.358-0.079,0.438l-0.575,2.247
		c-0.08,0.306-0.146,0.544-0.198,0.717c-0.054,0.172-0.106,0.308-0.159,0.407s-0.105,0.179-0.158,0.238
		c-0.053,0.061-0.119,0.123-0.199,0.189c-0.185,0.159-0.43,0.285-0.733,0.378s-0.614,0.139-0.933,0.139c-0.053,0-0.111,0-0.178,0
		s-0.139-0.006-0.219-0.02l0.834,4.165c0.039,0.186,0.078,0.348,0.118,0.486s0.089,0.262,0.149,0.367
		c0.059,0.105,0.131,0.211,0.218,0.317c0.086,0.105,0.194,0.218,0.327,0.337h-5.574l-1.09-5.673H107.62z M110.675,26.501
		c0.212,0,0.387-0.01,0.525-0.029c0.14-0.02,0.255-0.06,0.347-0.119c0.093-0.06,0.166-0.142,0.219-0.248
		c0.053-0.105,0.1-0.251,0.139-0.437l0.338-1.329c0.053-0.158,0.078-0.311,0.078-0.456c0-0.185-0.059-0.313-0.178-0.387
		c-0.119-0.072-0.317-0.108-0.596-0.108h-2.539l-0.793,3.113H110.675z"/>
</g>
<g>
	<path fill="#FFFFFF" d="M125.67,21.205c-0.119,0.186-0.225,0.351-0.318,0.496c-0.092,0.146-0.172,0.301-0.237,0.466
		c-0.066,0.166-0.132,0.351-0.198,0.556s-0.139,0.453-0.219,0.744l-2.38,9.224c-0.04,0.132-0.073,0.304-0.099,0.516
		c-0.027,0.211-0.04,0.39-0.04,0.535c0,0.119,0.007,0.229,0.02,0.327c0.013,0.1,0.053,0.222,0.119,0.367h-5.931
		c0.119-0.172,0.225-0.334,0.317-0.486c0.093-0.151,0.172-0.307,0.237-0.466c0.066-0.158,0.133-0.34,0.199-0.546
		c0.066-0.204,0.139-0.459,0.218-0.764l2.38-9.223c0.027-0.106,0.053-0.274,0.08-0.506c0.026-0.231,0.039-0.413,0.039-0.546
		c0-0.119-0.006-0.228-0.02-0.327s-0.047-0.222-0.1-0.367H125.67z"/>
</g>
<g>
	<path fill="#FFFFFF" d="M123.983,34.436c0.119-0.172,0.226-0.334,0.317-0.486c0.093-0.152,0.172-0.312,0.238-0.477
		c0.065-0.166,0.132-0.352,0.197-0.557c0.066-0.205,0.14-0.454,0.219-0.745l2.381-9.237c0.025-0.105,0.053-0.274,0.079-0.507
		c0.026-0.231,0.04-0.413,0.04-0.546c0-0.119-0.008-0.229-0.021-0.328c-0.013-0.099-0.046-0.222-0.099-0.367h9.838
		c0.41,0,0.75,0.007,1.021,0.02c0.271,0.014,0.502,0.037,0.694,0.07c0.191,0.033,0.356,0.082,0.495,0.148
		c0.14,0.066,0.281,0.146,0.428,0.238c0.33,0.238,0.592,0.543,0.783,0.914s0.287,0.755,0.287,1.152c0,0.158-0.014,0.354-0.039,0.586
		c-0.027,0.231-0.061,0.42-0.1,0.566l-1.606,6.197c-0.093,0.385-0.179,0.706-0.258,0.964s-0.165,0.483-0.258,0.676
		c-0.093,0.191-0.202,0.357-0.327,0.496c-0.126,0.139-0.275,0.288-0.447,0.447c-0.158,0.146-0.301,0.261-0.426,0.348
		c-0.126,0.086-0.258,0.155-0.396,0.209c-0.139,0.053-0.301,0.092-0.486,0.118c-0.186,0.027-0.403,0.047-0.654,0.06
		c-0.186,0.014-0.364,0.023-0.535,0.03c-0.173,0.007-0.324,0.01-0.457,0.01H123.983z M132.532,32.233
		c0.291,0,0.522-0.01,0.694-0.029s0.311-0.079,0.416-0.178c0.106-0.099,0.191-0.254,0.258-0.466c0.066-0.211,0.152-0.501,0.258-0.87
		l1.588-6.175c0.039-0.146,0.065-0.255,0.079-0.327c0.013-0.072,0.02-0.142,0.02-0.207c0-0.225-0.069-0.38-0.208-0.466
		c-0.139-0.085-0.394-0.128-0.764-0.128h-2.559l-2.281,8.846H132.532z"/>
</g>
<g>
	<path fill="#FFFFFF" d="M156.334,26.62c-0.119,0.186-0.222,0.352-0.307,0.497c-0.087,0.146-0.166,0.302-0.238,0.468
		c-0.073,0.166-0.139,0.352-0.199,0.557c-0.059,0.206-0.129,0.454-0.208,0.746l-0.991,3.798c-0.027,0.106-0.053,0.275-0.08,0.507
		c-0.026,0.232-0.039,0.415-0.039,0.547c0,0.133,0.006,0.246,0.02,0.338c0.014,0.094,0.047,0.213,0.1,0.358h-4.186l0.02-1.241
		c-0.186,0.494-0.403,0.824-0.654,0.991c-0.252,0.167-0.642,0.25-1.17,0.25h-4.166c-0.344,0-0.645-0.007-0.902-0.02
		c-0.258-0.014-0.482-0.04-0.674-0.08c-0.192-0.039-0.361-0.092-0.506-0.158c-0.146-0.066-0.278-0.152-0.397-0.259
		c-0.291-0.225-0.522-0.51-0.694-0.854c-0.172-0.345-0.258-0.696-0.258-1.054c0-0.172,0.017-0.354,0.05-0.546
		c0.032-0.192,0.096-0.46,0.188-0.805l1.686-6.595c0.172-0.636,0.387-1.136,0.645-1.5s0.625-0.666,1.102-0.904
		c0.251-0.119,0.463-0.209,0.635-0.268c0.172-0.06,0.377-0.103,0.615-0.129c0.238-0.027,0.552-0.047,0.941-0.061
		c0.391-0.013,0.93-0.02,1.617-0.02h8.648l-0.219,2.539c-0.305-0.119-0.628-0.205-0.972-0.258c-0.345-0.053-0.78-0.079-1.31-0.079
		h-5.078c-0.542,0-0.919,0.069-1.13,0.207c-0.212,0.139-0.37,0.419-0.476,0.841l-1.727,6.65c-0.053,0.172-0.082,0.277-0.089,0.316
		c-0.007,0.04-0.011,0.1-0.011,0.179c0,0.436,0.305,0.652,0.913,0.652h1.687c0.197,0,0.356-0.013,0.476-0.039
		s0.225-0.085,0.317-0.178c0.092-0.092,0.168-0.22,0.229-0.384c0.059-0.164,0.129-0.385,0.208-0.661l0.556-2.149h-1.27
		c-0.357,0-0.635,0.014-0.834,0.039c-0.197,0.027-0.449,0.093-0.754,0.199l0.635-2.44H156.334z"/>
</g>
<g>
	<path fill="#FFFFFF" d="M163.375,26.601h4.939c0.437,0,0.873-0.066,1.309-0.198l-0.693,2.678c-0.225-0.105-0.434-0.179-0.625-0.219
		c-0.191-0.039-0.5-0.059-0.922-0.059h-4.562l-0.893,3.431h5.197c0.264,0,0.498-0.022,0.703-0.069
		c0.205-0.046,0.439-0.122,0.705-0.228l-0.992,2.499h-11.663c0.119-0.172,0.226-0.334,0.317-0.486
		c0.093-0.152,0.172-0.312,0.238-0.477c0.065-0.166,0.132-0.352,0.197-0.557c0.066-0.205,0.14-0.454,0.219-0.745l2.381-9.237
		c0.025-0.105,0.053-0.274,0.079-0.507c0.026-0.231,0.04-0.413,0.04-0.546c0-0.119-0.008-0.229-0.021-0.328
		c-0.013-0.099-0.046-0.222-0.099-0.367h11.742l-0.317,2.52c-0.251-0.133-0.479-0.219-0.685-0.259
		c-0.205-0.039-0.499-0.059-0.883-0.059h-4.879L163.375,26.601z"/>
</g>
<g>
	<path fill="#FFFFFF" stroke="#FFFFFF" stroke-width="0.5" stroke-miterlimit="10" d="M53.854,44.265h-0.987
		c0-0.709-0.119-1.16-0.355-1.352s-0.794-0.287-1.672-0.287c-1.042,0-1.713,0.092-2.014,0.273c-0.301,0.184-0.452,0.592-0.452,1.225
		c0,0.709,0.118,1.143,0.355,1.297s0.94,0.26,2.111,0.316c1.373,0.061,2.246,0.234,2.618,0.523c0.373,0.287,0.559,0.934,0.559,1.936
		c0,1.086-0.214,1.787-0.643,2.105S52,50.781,50.536,50.781c-1.27,0-2.114-0.162-2.534-0.482c-0.42-0.32-0.629-0.967-0.629-1.939
		l-0.006-0.395h0.987v0.221c0,0.787,0.121,1.277,0.362,1.469c0.241,0.191,0.858,0.287,1.853,0.287c1.14,0,1.842-0.096,2.104-0.287
		c0.262-0.191,0.394-0.703,0.394-1.533c0-0.539-0.089-0.896-0.268-1.076c-0.179-0.178-0.552-0.285-1.12-0.318l-1.033-0.053
		l-0.981-0.051c-1.493-0.104-2.24-0.879-2.24-2.324c0-1.004,0.217-1.672,0.652-2.008s1.302-0.504,2.602-0.504
		c1.317,0,2.176,0.156,2.576,0.469C53.655,42.566,53.854,43.238,53.854,44.265z"/>
</g>
<g>
	<path fill="#FFFFFF" stroke="#FFFFFF" stroke-width="0.5" stroke-miterlimit="10" d="M60.258,48.824h0.923l0.007,0.227
		c0,0.641-0.195,1.09-0.584,1.346s-1.073,0.385-2.05,0.385c-1.136,0-1.882-0.209-2.237-0.623c-0.355-0.416-0.533-1.289-0.533-2.619
		c0-1.23,0.179-2.057,0.536-2.479c0.357-0.422,1.057-0.633,2.099-0.633c1.136,0,1.88,0.184,2.233,0.549s0.529,1.137,0.529,2.311
		v0.484H56.74c0,0.973,0.104,1.594,0.313,1.859c0.209,0.268,0.696,0.4,1.462,0.4c0.727,0,1.2-0.062,1.417-0.189
		s0.326-0.402,0.326-0.824V48.824z M60.258,47.068l-0.006-0.291c0-0.666-0.11-1.1-0.33-1.301c-0.219-0.199-0.693-0.301-1.42-0.301
		c-0.731,0-1.206,0.117-1.423,0.354c-0.217,0.234-0.326,0.746-0.326,1.539H60.258z"/>
</g>
<g>
	<path fill="#FFFFFF" stroke="#FFFFFF" stroke-width="0.5" stroke-miterlimit="10" d="M67.108,48.462h0.904l0.006,0.336
		c0,1.32-0.865,1.982-2.595,1.982c-1.11,0-1.844-0.209-2.202-0.627c-0.357-0.418-0.536-1.279-0.536-2.582
		c0-1.223,0.182-2.053,0.545-2.49c0.364-0.436,1.056-0.654,2.076-0.654c1.003,0,1.687,0.146,2.053,0.441
		c0.366,0.295,0.549,0.85,0.549,1.664h-0.904v-0.162c0-0.479-0.118-0.797-0.355-0.955c-0.237-0.16-0.708-0.24-1.414-0.24
		c-0.68,0-1.117,0.152-1.311,0.453c-0.194,0.301-0.291,0.977-0.291,2.027c0,1.023,0.111,1.676,0.333,1.955
		c0.221,0.281,0.739,0.42,1.552,0.42c0.689,0,1.125-0.092,1.311-0.273C67.015,49.574,67.108,49.142,67.108,48.462z"/>
</g>
<g>
	<path fill="#FFFFFF" stroke="#FFFFFF" stroke-width="0.5" stroke-miterlimit="10" d="M74.843,44.517v6.172h-0.904l0.064-0.807
		l-0.019-0.02c-0.314,0.611-0.986,0.918-2.014,0.918c-1.442,0-2.163-0.719-2.163-2.156v-4.107h0.904v4.107
		c0,0.559,0.093,0.934,0.278,1.123s0.549,0.283,1.091,0.283c0.71,0,1.198-0.141,1.462-0.422c0.265-0.283,0.397-0.801,0.397-1.553
		v-3.539H74.843z"/>
</g>
<g>
	<path fill="#FFFFFF" stroke="#FFFFFF" stroke-width="0.5" stroke-miterlimit="10" d="M76.734,44.517h0.904l-0.09,0.711l0.02,0.02
		c0.357-0.582,0.947-0.871,1.769-0.871c1.136,0,1.704,0.584,1.704,1.756l-0.006,0.426h-0.891l0.02-0.156
		c0.013-0.162,0.02-0.271,0.02-0.328c0-0.633-0.344-0.949-1.033-0.949c-1.007,0-1.511,0.621-1.511,1.865v3.699h-0.904V44.517z"/>
</g>
<g>
	<path fill="#FFFFFF" stroke="#FFFFFF" stroke-width="0.5" stroke-miterlimit="10" d="M83.206,41.876v1.014h-0.904v-1.014H83.206z
		 M83.206,44.517v6.172h-0.904v-6.172H83.206z"/>
</g>
<g>
	<path fill="#FFFFFF" stroke="#FFFFFF" stroke-width="0.5" stroke-miterlimit="10" d="M88.854,44.517v0.75h-2.376v3.775
		c0,0.66,0.293,0.988,0.878,0.988c0.581,0,0.872-0.295,0.872-0.885l0.006-0.303l0.014-0.342h0.839l0.007,0.457
		c0,1.215-0.577,1.822-1.73,1.822c-1.192,0-1.789-0.506-1.789-1.518v-0.221v-3.775h-0.852v-0.75h0.852v-1.484h0.904v1.484H88.854z"
		/>
</g>
<g>
	<path fill="#FFFFFF" stroke="#FFFFFF" stroke-width="0.5" stroke-miterlimit="10" d="M95.598,44.517l-1.75,6.527
		c-0.245,0.922-0.518,1.555-0.816,1.898s-0.727,0.516-1.281,0.516c-0.112,0-0.256-0.014-0.433-0.045v-0.748
		c0.124,0.025,0.229,0.041,0.316,0.045c0.486,0.025,0.848-0.369,1.085-1.182l0.174-0.607c0.004-0.021,0.023-0.098,0.059-0.232
		h-0.343l-2.233-6.172h0.961l0.949,2.75l0.479,1.369l0.232,0.691l0.238,0.684h0.026l0.167-0.684l0.162-0.691l0.349-1.369l0.697-2.75
		H95.598z"/>
</g>
<text transform="matrix(1 0 0 1 96.3564 50.689)" fill="#FFFFFF" stroke="#FFFFFF" stroke-width="0.5" stroke-miterlimit="10" font-family="'EurostileRegular'" font-size="13.2218"> </text>
<g>
	<path fill="#FFFFFF" stroke="#FFFFFF" stroke-width="0.5" stroke-miterlimit="10" d="M107.602,44.265h-0.987
		c0-0.709-0.118-1.16-0.355-1.352s-0.794-0.287-1.672-0.287c-1.042,0-1.713,0.092-2.015,0.273c-0.301,0.184-0.451,0.592-0.451,1.225
		c0,0.709,0.117,1.143,0.354,1.297s0.94,0.26,2.111,0.316c1.373,0.061,2.245,0.234,2.618,0.523c0.372,0.287,0.559,0.934,0.559,1.936
		c0,1.086-0.215,1.787-0.643,2.105c-0.429,0.318-1.375,0.479-2.838,0.479c-1.27,0-2.114-0.162-2.533-0.482
		c-0.42-0.32-0.63-0.967-0.63-1.939l-0.007-0.395h0.988v0.221c0,0.787,0.12,1.277,0.361,1.469c0.24,0.191,0.858,0.287,1.854,0.287
		c1.14,0,1.842-0.096,2.104-0.287c0.263-0.191,0.395-0.703,0.395-1.533c0-0.539-0.09-0.896-0.268-1.076
		c-0.18-0.178-0.553-0.285-1.121-0.318l-1.033-0.053l-0.98-0.051c-1.494-0.104-2.24-0.879-2.24-2.324
		c0-1.004,0.217-1.672,0.652-2.008c0.434-0.336,1.301-0.504,2.602-0.504c1.316,0,2.176,0.156,2.576,0.469
		C107.402,42.566,107.602,43.238,107.602,44.265z"/>
</g>
<g>
	<path fill="#FFFFFF" stroke="#FFFFFF" stroke-width="0.5" stroke-miterlimit="10" d="M114.006,48.824h0.922l0.008,0.227
		c0,0.641-0.195,1.09-0.585,1.346s-1.073,0.385-2.05,0.385c-1.137,0-1.882-0.209-2.236-0.623c-0.355-0.416-0.533-1.289-0.533-2.619
		c0-1.23,0.179-2.057,0.535-2.479c0.357-0.422,1.057-0.633,2.1-0.633c1.136,0,1.88,0.184,2.232,0.549
		c0.354,0.365,0.529,1.137,0.529,2.311v0.484h-4.441c0,0.973,0.105,1.594,0.313,1.859c0.209,0.268,0.696,0.4,1.462,0.4
		c0.728,0,1.2-0.062,1.418-0.189c0.217-0.127,0.326-0.402,0.326-0.824V48.824z M114.006,47.068l-0.007-0.291
		c0-0.666-0.11-1.1-0.329-1.301c-0.22-0.199-0.693-0.301-1.421-0.301c-0.731,0-1.206,0.117-1.423,0.354
		c-0.218,0.234-0.326,0.746-0.326,1.539H114.006z"/>
</g>
<g>
	<path fill="#FFFFFF" stroke="#FFFFFF" stroke-width="0.5" stroke-miterlimit="10" d="M116.57,44.517h0.904l-0.09,0.711l0.02,0.02
		c0.357-0.582,0.946-0.871,1.769-0.871c1.136,0,1.704,0.584,1.704,1.756l-0.006,0.426h-0.892l0.02-0.156
		c0.013-0.162,0.02-0.271,0.02-0.328c0-0.633-0.345-0.949-1.033-0.949c-1.007,0-1.511,0.621-1.511,1.865v3.699h-0.904V44.517z"/>
</g>
<g>
	<path fill="#FFFFFF" stroke="#FFFFFF" stroke-width="0.5" stroke-miterlimit="10" d="M126.975,44.517l-2.065,6.172h-1.298
		l-2.047-6.172h0.93l1.092,3.357l0.342,1.053l0.162,0.529l0.168,0.529h0.025l0.154-0.523l0.155-0.529l0.329-1.045l1.047-3.371
		H126.975z"/>
</g>
<g>
	<path fill="#FFFFFF" stroke="#FFFFFF" stroke-width="0.5" stroke-miterlimit="10" d="M128.879,41.876v1.014h-0.903v-1.014H128.879z
		 M128.879,44.517v6.172h-0.903v-6.172H128.879z"/>
</g>
<g>
	<path fill="#FFFFFF" stroke="#FFFFFF" stroke-width="0.5" stroke-miterlimit="10" d="M134.967,48.462h0.904l0.006,0.336
		c0,1.32-0.864,1.982-2.595,1.982c-1.11,0-1.845-0.209-2.202-0.627c-0.356-0.418-0.535-1.279-0.535-2.582
		c0-1.223,0.182-2.053,0.545-2.49c0.364-0.436,1.057-0.654,2.076-0.654c1.003,0,1.688,0.146,2.053,0.441
		c0.366,0.295,0.549,0.85,0.549,1.664h-0.904v-0.162c0-0.479-0.117-0.797-0.354-0.955c-0.237-0.16-0.708-0.24-1.413-0.24
		c-0.681,0-1.117,0.152-1.311,0.453c-0.194,0.301-0.291,0.977-0.291,2.027c0,1.023,0.111,1.676,0.332,1.955
		c0.222,0.281,0.739,0.42,1.553,0.42c0.689,0,1.125-0.092,1.311-0.273C134.875,49.574,134.967,49.142,134.967,48.462z"/>
</g>
<g>
	<path fill="#FFFFFF" stroke="#FFFFFF" stroke-width="0.5" stroke-miterlimit="10" d="M141.705,48.824h0.922l0.008,0.227
		c0,0.641-0.195,1.09-0.585,1.346s-1.073,0.385-2.05,0.385c-1.137,0-1.882-0.209-2.236-0.623c-0.355-0.416-0.533-1.289-0.533-2.619
		c0-1.23,0.179-2.057,0.535-2.479c0.357-0.422,1.057-0.633,2.1-0.633c1.136,0,1.88,0.184,2.232,0.549
		c0.354,0.365,0.529,1.137,0.529,2.311v0.484h-4.441c0,0.973,0.105,1.594,0.313,1.859c0.209,0.268,0.696,0.4,1.462,0.4
		c0.728,0,1.2-0.062,1.418-0.189c0.217-0.127,0.326-0.402,0.326-0.824V48.824z M141.705,47.068l-0.007-0.291
		c0-0.666-0.11-1.1-0.329-1.301c-0.22-0.199-0.693-0.301-1.421-0.301c-0.731,0-1.206,0.117-1.423,0.354
		c-0.218,0.234-0.326,0.746-0.326,1.539H141.705z"/>
</g>
<g>
	<path fill="#FFFFFF" stroke="#FFFFFF" stroke-width="0.5" stroke-miterlimit="10" d="M149.506,46.132h-0.904
		c0-0.432-0.087-0.697-0.262-0.801c-0.174-0.104-0.623-0.156-1.346-0.156c-0.672,0-1.098,0.055-1.278,0.166
		c-0.181,0.109-0.271,0.373-0.271,0.791c0,0.633,0.303,0.963,0.91,0.994l0.729,0.037l0.924,0.047
		c1.119,0.055,1.679,0.641,1.679,1.756c0,0.693-0.185,1.168-0.556,1.426c-0.369,0.258-1.048,0.389-2.033,0.389
		c-1.012,0-1.707-0.123-2.088-0.369c-0.381-0.244-0.572-0.695-0.572-1.35l0.007-0.336h0.937l0.006,0.291
		c0,0.404,0.104,0.676,0.311,0.811c0.206,0.135,0.613,0.203,1.22,0.203c0.745,0,1.233-0.07,1.469-0.213
		c0.234-0.143,0.352-0.439,0.352-0.891c0-0.65-0.295-0.975-0.884-0.975c-1.373,0-2.276-0.117-2.709-0.35s-0.648-0.715-0.648-1.445
		c0-0.693,0.171-1.154,0.514-1.385c0.342-0.23,1.022-0.346,2.043-0.346c1.635,0,2.453,0.492,2.453,1.479V46.132z"/>
</g>
<g>
	<path fill="#EF3A32" d="M22.958,5.341c3.596,0,12.345,2.637,12.345,2.637S21.759,0.183,8.216,0.188
		C-5.573,0.191,1.74,11.333,5.1,15.289c3.445,4.057,11.865,11.266,11.865,11.266l1.918-2.157c0,0-6.592-6.712-6.592-12.824
		C12.291,5.46,19.362,5.341,22.958,5.341z"/>
	<path fill="#EF3A32" d="M29.476,36.037l-1.496,1.569c0,0,8.301,8.302,8.301,15.78c0,12.861-26.698,15.854-26.698,15.854
		c20.566,0,35.598-3.664,35.598-12.787C45.181,47.328,29.476,36.037,29.476,36.037z"/>
</g>
</svg>
